<?xml version="1.0" encoding="UTF-8" standalone="no"?>
<!DOCTYPE svg PUBLIC "-//W3C//DTD SVG 1.1//EN"
 "http://www.w3.org/Graphics/SVG/1.1/DTD/svg11.dtd">
<!-- Generated by graphviz version 2.30.1 (20180420.1509)
 -->
<!-- Title: %3 Pages: 1 -->
<svg width="2766pt" height="620pt"
 viewBox="0.00 0.00 2766.00 620.00" xmlns="http://www.w3.org/2000/svg" xmlns:xlink="http://www.w3.org/1999/xlink">
<g id="graph0" class="graph" transform="scale(1 1) rotate(0) translate(4 616)">
<title>%3</title>
<polygon fill="white" stroke="white" points="-4,5 -4,-616 2763,-616 2763,5 -4,5"/>
<!-- [root] aws_autoscaling_group.ecs&#45;spin&#45;asg -->
<g id="node1" class="node"><title>[root] aws_autoscaling_group.ecs&#45;spin&#45;asg</title>
<polygon fill="none" stroke="black" points="770,-468 558,-468 558,-432 770,-432 770,-468"/>
<text text-anchor="middle" x="664" y="-446.3" font-family="Times,serif" font-size="14.00">aws_autoscaling_group.ecs&#45;spin&#45;asg</text>
</g>
<!-- [root] aws_launch_configuration.ecs&#45;spin&#45;lc -->
<g id="node11" class="node"><title>[root] aws_launch_configuration.ecs&#45;spin&#45;lc</title>
<polygon fill="none" stroke="black" points="797,-396 577,-396 577,-360 797,-360 797,-396"/>
<text text-anchor="middle" x="687" y="-374.3" font-family="Times,serif" font-size="14.00">aws_launch_configuration.ecs&#45;spin&#45;lc</text>
</g>
<!-- [root] aws_autoscaling_group.ecs&#45;spin&#45;asg&#45;&gt;[root] aws_launch_configuration.ecs&#45;spin&#45;lc -->
<g id="edge1" class="edge"><title>[root] aws_autoscaling_group.ecs&#45;spin&#45;asg&#45;&gt;[root] aws_launch_configuration.ecs&#45;spin&#45;lc</title>
<path fill="none" stroke="black" d="M669.685,-431.697C672.248,-423.898 675.333,-414.509 678.185,-405.829"/>
<polygon fill="black" stroke="black" points="681.584,-406.697 681.38,-396.104 674.933,-404.512 681.584,-406.697"/>
</g>
<!-- [root] aws_subnet.main&#45;public&#45;1 -->
<g id="node21" class="node"><title>[root] aws_subnet.main&#45;public&#45;1</title>
<polygon fill="none" stroke="black" points="998.25,-396 839.75,-396 839.75,-360 998.25,-360 998.25,-396"/>
<text text-anchor="middle" x="919" y="-374.3" font-family="Times,serif" font-size="14.00">aws_subnet.main&#45;public&#45;1</text>
</g>
<!-- [root] aws_autoscaling_group.ecs&#45;spin&#45;asg&#45;&gt;[root] aws_subnet.main&#45;public&#45;1 -->
<g id="edge2" class="edge"><title>[root] aws_autoscaling_group.ecs&#45;spin&#45;asg&#45;&gt;[root] aws_subnet.main&#45;public&#45;1</title>
<path fill="none" stroke="black" d="M726.054,-431.966C762.458,-421.972 808.627,-409.298 846.675,-398.854"/>
<polygon fill="black" stroke="black" points="847.951,-402.133 856.668,-396.111 846.098,-395.383 847.951,-402.133"/>
</g>
<!-- [root] aws_ecs_cluster.spin&#45;test -->
<g id="node2" class="node"><title>[root] aws_ecs_cluster.spin&#45;test</title>
<polygon fill="none" stroke="black" points="2316.25,-468 2165.75,-468 2165.75,-432 2316.25,-432 2316.25,-468"/>
<text text-anchor="middle" x="2241" y="-446.3" font-family="Times,serif" font-size="14.00">aws_ecs_cluster.spin&#45;test</text>
</g>
<!-- [root] provider.aws -->
<g id="node25" class="node"><title>[root] provider.aws</title>
<polygon fill="none" stroke="black" points="1098,-108 1020.69,-90 1098,-72 1175.31,-90 1098,-108"/>
<text text-anchor="middle" x="1098" y="-86.3" font-family="Times,serif" font-size="14.00">provider.aws</text>
</g>
<!-- [root] aws_ecs_cluster.spin&#45;test&#45;&gt;[root] provider.aws -->
<g id="edge3" class="edge"><title>[root] aws_ecs_cluster.spin&#45;test&#45;&gt;[root] provider.aws</title>
<path fill="none" stroke="black" d="M2220.35,-431.584C2193.5,-406.869 2150,-358.827 2150,-307 2150,-307 2150,-307 2150,-233 2150,-134.322 1413.68,-101.366 1173.07,-93.2307"/>
<polygon fill="black" stroke="black" points="1173.12,-89.7307 1163.01,-92.8954 1172.89,-96.7268 1173.12,-89.7307"/>
</g>
<!-- [root] aws_iam_instance_profile.ecs&#45;spin&#45;role -->
<g id="node3" class="node"><title>[root] aws_iam_instance_profile.ecs&#45;spin&#45;role</title>
<polygon fill="none" stroke="black" points="664,-324 434,-324 434,-288 664,-288 664,-324"/>
<text text-anchor="middle" x="549" y="-302.3" font-family="Times,serif" font-size="14.00">aws_iam_instance_profile.ecs&#45;spin&#45;role</text>
</g>
<!-- [root] aws_iam_role.ecs&#45;spin&#45;role -->
<g id="node7" class="node"><title>[root] aws_iam_role.ecs&#45;spin&#45;role</title>
<polygon fill="none" stroke="black" points="631.25,-252 466.75,-252 466.75,-216 631.25,-216 631.25,-252"/>
<text text-anchor="middle" x="549" y="-230.3" font-family="Times,serif" font-size="14.00">aws_iam_role.ecs&#45;spin&#45;role</text>
</g>
<!-- [root] aws_iam_instance_profile.ecs&#45;spin&#45;role&#45;&gt;[root] aws_iam_role.ecs&#45;spin&#45;role -->
<g id="edge4" class="edge"><title>[root] aws_iam_instance_profile.ecs&#45;spin&#45;role&#45;&gt;[root] aws_iam_role.ecs&#45;spin&#45;role</title>
<path fill="none" stroke="black" d="M549,-287.697C549,-279.983 549,-270.712 549,-262.112"/>
<polygon fill="black" stroke="black" points="552.5,-262.104 549,-252.104 545.5,-262.104 552.5,-262.104"/>
</g>
<!-- [root] aws_iam_policy_attachment.ecs&#45;service&#45;attach1 -->
<g id="node4" class="node"><title>[root] aws_iam_policy_attachment.ecs&#45;service&#45;attach1</title>
<polygon fill="none" stroke="black" points="278,-468 0,-468 0,-432 278,-432 278,-468"/>
<text text-anchor="middle" x="139" y="-446.3" font-family="Times,serif" font-size="14.00">aws_iam_policy_attachment.ecs&#45;service&#45;attach1</text>
</g>
<!-- [root] aws_iam_role.ecs&#45;service&#45;role -->
<g id="node6" class="node"><title>[root] aws_iam_role.ecs&#45;service&#45;role</title>
<polygon fill="none" stroke="black" points="381.25,-180 200.75,-180 200.75,-144 381.25,-144 381.25,-180"/>
<text text-anchor="middle" x="291" y="-158.3" font-family="Times,serif" font-size="14.00">aws_iam_role.ecs&#45;service&#45;role</text>
</g>
<!-- [root] aws_iam_policy_attachment.ecs&#45;service&#45;attach1&#45;&gt;[root] aws_iam_role.ecs&#45;service&#45;role -->
<g id="edge5" class="edge"><title>[root] aws_iam_policy_attachment.ecs&#45;service&#45;attach1&#45;&gt;[root] aws_iam_role.ecs&#45;service&#45;role</title>
<path fill="none" stroke="black" d="M146.739,-431.845C160.258,-402.157 189.374,-339.442 217,-288 235.809,-252.976 259.514,-213.687 274.952,-188.667"/>
<polygon fill="black" stroke="black" points="277.951,-190.474 280.242,-180.129 272,-186.787 277.951,-190.474"/>
</g>
<!-- [root] aws_iam_role.ecs&#45;consul&#45;server&#45;role -->
<g id="node5" class="node"><title>[root] aws_iam_role.ecs&#45;consul&#45;server&#45;role</title>
<polygon fill="none" stroke="black" points="2549,-468 2335,-468 2335,-432 2549,-432 2549,-468"/>
<text text-anchor="middle" x="2442" y="-446.3" font-family="Times,serif" font-size="14.00">aws_iam_role.ecs&#45;consul&#45;server&#45;role</text>
</g>
<!-- [root] aws_iam_role.ecs&#45;consul&#45;server&#45;role&#45;&gt;[root] provider.aws -->
<g id="edge6" class="edge"><title>[root] aws_iam_role.ecs&#45;consul&#45;server&#45;role&#45;&gt;[root] provider.aws</title>
<path fill="none" stroke="black" d="M2410.61,-431.943C2373,-408.951 2315,-364.218 2315,-307 2315,-307 2315,-307 2315,-233 2315,-118.147 1448.82,-96.0176 1177.95,-91.9054"/>
<polygon fill="black" stroke="black" points="1177.85,-88.4036 1167.8,-91.7555 1177.75,-95.4029 1177.85,-88.4036"/>
</g>
<!-- [root] aws_iam_role.ecs&#45;service&#45;role&#45;&gt;[root] provider.aws -->
<g id="edge7" class="edge"><title>[root] aws_iam_role.ecs&#45;service&#45;role&#45;&gt;[root] provider.aws</title>
<path fill="none" stroke="black" d="M381.614,-153.14C546.512,-138.837 891.742,-108.891 1034.31,-96.5244"/>
<polygon fill="black" stroke="black" points="1034.97,-99.9806 1044.63,-95.6295 1034.36,-93.0068 1034.97,-99.9806"/>
</g>
<!-- [root] aws_iam_role.ecs&#45;spin&#45;role&#45;&gt;[root] provider.aws -->
<g id="edge8" class="edge"><title>[root] aws_iam_role.ecs&#45;spin&#45;role&#45;&gt;[root] provider.aws</title>
<path fill="none" stroke="black" d="M566.753,-215.915C589.555,-195.093 631.305,-160.636 674,-144 737.402,-119.296 927.667,-102.781 1030.42,-95.4051"/>
<polygon fill="black" stroke="black" points="1030.96,-98.8756 1040.69,-94.6775 1030.46,-91.8932 1030.96,-98.8756"/>
</g>
<!-- [root] aws_iam_role_policy.ecs&#45;spin&#45;role&#45;policy -->
<g id="node8" class="node"><title>[root] aws_iam_role_policy.ecs&#45;spin&#45;role&#45;policy</title>
<polygon fill="none" stroke="black" points="539.25,-468 296.75,-468 296.75,-432 539.25,-432 539.25,-468"/>
<text text-anchor="middle" x="418" y="-446.3" font-family="Times,serif" font-size="14.00">aws_iam_role_policy.ecs&#45;spin&#45;role&#45;policy</text>
</g>
<!-- [root] aws_iam_role_policy.ecs&#45;spin&#45;role&#45;policy&#45;&gt;[root] aws_iam_role.ecs&#45;spin&#45;role -->
<g id="edge9" class="edge"><title>[root] aws_iam_role_policy.ecs&#45;spin&#45;role&#45;policy&#45;&gt;[root] aws_iam_role.ecs&#45;spin&#45;role</title>
<path fill="none" stroke="black" d="M369.747,-431.926C299.466,-404.502 182.529,-347.641 233,-288 261.2,-254.676 373.603,-242.292 456.359,-237.697"/>
<polygon fill="black" stroke="black" points="456.748,-241.181 466.551,-237.162 456.381,-234.191 456.748,-241.181"/>
</g>
<!-- [root] aws_internet_gateway.main&#45;gw -->
<g id="node9" class="node"><title>[root] aws_internet_gateway.main&#45;gw</title>
<polygon fill="none" stroke="black" points="1600.25,-252 1415.75,-252 1415.75,-216 1600.25,-216 1600.25,-252"/>
<text text-anchor="middle" x="1508" y="-230.3" font-family="Times,serif" font-size="14.00">aws_internet_gateway.main&#45;gw</text>
</g>
<!-- [root] aws_vpc.main -->
<g id="node24" class="node"><title>[root] aws_vpc.main</title>
<polygon fill="none" stroke="black" points="1555,-180 1461,-180 1461,-144 1555,-144 1555,-180"/>
<text text-anchor="middle" x="1508" y="-158.3" font-family="Times,serif" font-size="14.00">aws_vpc.main</text>
</g>
<!-- [root] aws_internet_gateway.main&#45;gw&#45;&gt;[root] aws_vpc.main -->
<g id="edge10" class="edge"><title>[root] aws_internet_gateway.main&#45;gw&#45;&gt;[root] aws_vpc.main</title>
<path fill="none" stroke="black" d="M1508,-215.697C1508,-207.983 1508,-198.712 1508,-190.112"/>
<polygon fill="black" stroke="black" points="1511.5,-190.104 1508,-180.104 1504.5,-190.104 1511.5,-190.104"/>
</g>
<!-- [root] aws_key_pair.spin&#45;key -->
<g id="node10" class="node"><title>[root] aws_key_pair.spin&#45;key</title>
<polygon fill="none" stroke="black" points="820,-324 682,-324 682,-288 820,-288 820,-324"/>
<text text-anchor="middle" x="751" y="-302.3" font-family="Times,serif" font-size="14.00">aws_key_pair.spin&#45;key</text>
</g>
<!-- [root] aws_key_pair.spin&#45;key&#45;&gt;[root] provider.aws -->
<g id="edge11" class="edge"><title>[root] aws_key_pair.spin&#45;key&#45;&gt;[root] provider.aws</title>
<path fill="none" stroke="black" d="M731.916,-287.964C713.355,-269.302 690.229,-238.969 707,-216 747.488,-160.55 948.529,-117.758 1045.5,-99.9816"/>
<polygon fill="black" stroke="black" points="1046.18,-103.416 1055.4,-98.1889 1044.93,-96.5282 1046.18,-103.416"/>
</g>
<!-- [root] var.PATH_TO_PUBLIC_KEY -->
<g id="node32" class="node"><title>[root] var.PATH_TO_PUBLIC_KEY</title>
<polygon fill="none" stroke="black" points="894,-252 716,-252 716,-216 900,-216 900,-246 894,-252"/>
<polyline fill="none" stroke="black" points="894,-252 894,-246 "/>
<polyline fill="none" stroke="black" points="900,-246 894,-246 "/>
<text text-anchor="middle" x="808" y="-230.3" font-family="Times,serif" font-size="14.00">var.PATH_TO_PUBLIC_KEY</text>
</g>
<!-- [root] aws_key_pair.spin&#45;key&#45;&gt;[root] var.PATH_TO_PUBLIC_KEY -->
<g id="edge12" class="edge"><title>[root] aws_key_pair.spin&#45;key&#45;&gt;[root] var.PATH_TO_PUBLIC_KEY</title>
<path fill="none" stroke="black" d="M765.09,-287.697C771.923,-279.305 780.257,-269.07 787.756,-259.861"/>
<polygon fill="black" stroke="black" points="790.472,-262.069 794.072,-252.104 785.044,-257.649 790.472,-262.069"/>
</g>
<!-- [root] aws_launch_configuration.ecs&#45;spin&#45;lc&#45;&gt;[root] aws_iam_instance_profile.ecs&#45;spin&#45;role -->
<g id="edge13" class="edge"><title>[root] aws_launch_configuration.ecs&#45;spin&#45;lc&#45;&gt;[root] aws_iam_instance_profile.ecs&#45;spin&#45;role</title>
<path fill="none" stroke="black" d="M653.241,-359.876C634.78,-350.512 611.718,-338.814 591.983,-328.803"/>
<polygon fill="black" stroke="black" points="593.39,-325.592 582.888,-324.19 590.223,-331.835 593.39,-325.592"/>
</g>
<!-- [root] aws_launch_configuration.ecs&#45;spin&#45;lc&#45;&gt;[root] aws_key_pair.spin&#45;key -->
<g id="edge14" class="edge"><title>[root] aws_launch_configuration.ecs&#45;spin&#45;lc&#45;&gt;[root] aws_key_pair.spin&#45;key</title>
<path fill="none" stroke="black" d="M702.82,-359.697C710.57,-351.22 720.039,-340.864 728.524,-331.583"/>
<polygon fill="black" stroke="black" points="731.197,-333.846 735.362,-324.104 726.031,-329.123 731.197,-333.846"/>
</g>
<!-- [root] aws_security_group.ecs&#45;securitygroup -->
<g id="node16" class="node"><title>[root] aws_security_group.ecs&#45;securitygroup</title>
<polygon fill="none" stroke="black" points="1061.25,-324 838.75,-324 838.75,-288 1061.25,-288 1061.25,-324"/>
<text text-anchor="middle" x="950" y="-302.3" font-family="Times,serif" font-size="14.00">aws_security_group.ecs&#45;securitygroup</text>
</g>
<!-- [root] aws_launch_configuration.ecs&#45;spin&#45;lc&#45;&gt;[root] aws_security_group.ecs&#45;securitygroup -->
<g id="edge15" class="edge"><title>[root] aws_launch_configuration.ecs&#45;spin&#45;lc&#45;&gt;[root] aws_security_group.ecs&#45;securitygroup</title>
<path fill="none" stroke="black" d="M751.001,-359.966C788.706,-349.93 836.57,-337.19 875.907,-326.721"/>
<polygon fill="black" stroke="black" points="876.949,-330.065 885.712,-324.111 875.148,-323.301 876.949,-330.065"/>
</g>
<!-- [root] var.ECS_AMIS -->
<g id="node29" class="node"><title>[root] var.ECS_AMIS</title>
<polygon fill="none" stroke="black" points="1176,-324 1080,-324 1080,-288 1182,-288 1182,-318 1176,-324"/>
<polyline fill="none" stroke="black" points="1176,-324 1176,-318 "/>
<polyline fill="none" stroke="black" points="1182,-318 1176,-318 "/>
<text text-anchor="middle" x="1131" y="-302.3" font-family="Times,serif" font-size="14.00">var.ECS_AMIS</text>
</g>
<!-- [root] aws_launch_configuration.ecs&#45;spin&#45;lc&#45;&gt;[root] var.ECS_AMIS -->
<g id="edge16" class="edge"><title>[root] aws_launch_configuration.ecs&#45;spin&#45;lc&#45;&gt;[root] var.ECS_AMIS</title>
<path fill="none" stroke="black" d="M797.311,-363.408C891.488,-351.495 1019.47,-334.487 1070,-324 1070.1,-323.979 1070.2,-323.958 1070.3,-323.937"/>
<polygon fill="black" stroke="black" points="1070.88,-327.395 1079.87,-321.787 1069.34,-320.565 1070.88,-327.395"/>
</g>
<!-- [root] var.ECS_INSTANCE_TYPE -->
<g id="node30" class="node"><title>[root] var.ECS_INSTANCE_TYPE</title>
<polygon fill="none" stroke="black" points="410,-324 242,-324 242,-288 416,-288 416,-318 410,-324"/>
<polyline fill="none" stroke="black" points="410,-324 410,-318 "/>
<polyline fill="none" stroke="black" points="416,-318 410,-318 "/>
<text text-anchor="middle" x="329" y="-302.3" font-family="Times,serif" font-size="14.00">var.ECS_INSTANCE_TYPE</text>
</g>
<!-- [root] aws_launch_configuration.ecs&#45;spin&#45;lc&#45;&gt;[root] var.ECS_INSTANCE_TYPE -->
<g id="edge17" class="edge"><title>[root] aws_launch_configuration.ecs&#45;spin&#45;lc&#45;&gt;[root] var.ECS_INSTANCE_TYPE</title>
<path fill="none" stroke="black" d="M599.881,-359.966C547.371,-349.698 480.387,-336.601 426.168,-325.999"/>
<polygon fill="black" stroke="black" points="426.685,-322.534 416.199,-324.05 425.341,-329.404 426.685,-322.534"/>
</g>
<!-- [root] aws_route_table.main&#45;public -->
<g id="node12" class="node"><title>[root] aws_route_table.main&#45;public</title>
<polygon fill="none" stroke="black" points="1475.25,-396 1302.75,-396 1302.75,-360 1475.25,-360 1475.25,-396"/>
<text text-anchor="middle" x="1389" y="-374.3" font-family="Times,serif" font-size="14.00">aws_route_table.main&#45;public</text>
</g>
<!-- [root] aws_route_table.main&#45;public&#45;&gt;[root] aws_internet_gateway.main&#45;gw -->
<g id="edge18" class="edge"><title>[root] aws_route_table.main&#45;public&#45;&gt;[root] aws_internet_gateway.main&#45;gw</title>
<path fill="none" stroke="black" d="M1403.35,-359.871C1424.17,-335.031 1462.88,-288.846 1486.93,-260.142"/>
<polygon fill="black" stroke="black" points="1489.85,-262.102 1493.59,-252.189 1484.49,-257.606 1489.85,-262.102"/>
</g>
<!-- [root] aws_route_table_association.main&#45;public&#45;1&#45;a -->
<g id="node13" class="node"><title>[root] aws_route_table_association.main&#45;public&#45;1&#45;a</title>
<polygon fill="none" stroke="black" points="1050,-468 788,-468 788,-432 1050,-432 1050,-468"/>
<text text-anchor="middle" x="919" y="-446.3" font-family="Times,serif" font-size="14.00">aws_route_table_association.main&#45;public&#45;1&#45;a</text>
</g>
<!-- [root] aws_route_table_association.main&#45;public&#45;1&#45;a&#45;&gt;[root] aws_route_table.main&#45;public -->
<g id="edge19" class="edge"><title>[root] aws_route_table_association.main&#45;public&#45;1&#45;a&#45;&gt;[root] aws_route_table.main&#45;public</title>
<path fill="none" stroke="black" d="M1033.37,-431.966C1112.82,-420.134 1217.5,-404.543 1292.68,-393.345"/>
<polygon fill="black" stroke="black" points="1293.25,-396.799 1302.63,-391.864 1292.22,-389.876 1293.25,-396.799"/>
</g>
<!-- [root] aws_route_table_association.main&#45;public&#45;1&#45;a&#45;&gt;[root] aws_subnet.main&#45;public&#45;1 -->
<g id="edge20" class="edge"><title>[root] aws_route_table_association.main&#45;public&#45;1&#45;a&#45;&gt;[root] aws_subnet.main&#45;public&#45;1</title>
<path fill="none" stroke="black" d="M919,-431.697C919,-423.983 919,-414.712 919,-406.112"/>
<polygon fill="black" stroke="black" points="922.5,-406.104 919,-396.104 915.5,-406.104 922.5,-406.104"/>
</g>
<!-- [root] aws_route_table_association.main&#45;public&#45;2&#45;a -->
<g id="node14" class="node"><title>[root] aws_route_table_association.main&#45;public&#45;2&#45;a</title>
<polygon fill="none" stroke="black" points="1330,-468 1068,-468 1068,-432 1330,-432 1330,-468"/>
<text text-anchor="middle" x="1199" y="-446.3" font-family="Times,serif" font-size="14.00">aws_route_table_association.main&#45;public&#45;2&#45;a</text>
</g>
<!-- [root] aws_route_table_association.main&#45;public&#45;2&#45;a&#45;&gt;[root] aws_route_table.main&#45;public -->
<g id="edge21" class="edge"><title>[root] aws_route_table_association.main&#45;public&#45;2&#45;a&#45;&gt;[root] aws_route_table.main&#45;public</title>
<path fill="none" stroke="black" d="M1245.48,-431.876C1271.92,-422.137 1305.2,-409.872 1333.06,-399.608"/>
<polygon fill="black" stroke="black" points="1334.5,-402.81 1342.67,-396.068 1332.08,-396.241 1334.5,-402.81"/>
</g>
<!-- [root] aws_subnet.main&#45;public&#45;2 -->
<g id="node22" class="node"><title>[root] aws_subnet.main&#45;public&#45;2</title>
<polygon fill="none" stroke="black" points="1397.25,-252 1238.75,-252 1238.75,-216 1397.25,-216 1397.25,-252"/>
<text text-anchor="middle" x="1318" y="-230.3" font-family="Times,serif" font-size="14.00">aws_subnet.main&#45;public&#45;2</text>
</g>
<!-- [root] aws_route_table_association.main&#45;public&#45;2&#45;a&#45;&gt;[root] aws_subnet.main&#45;public&#45;2 -->
<g id="edge22" class="edge"><title>[root] aws_route_table_association.main&#45;public&#45;2&#45;a&#45;&gt;[root] aws_subnet.main&#45;public&#45;2</title>
<path fill="none" stroke="black" d="M1208.54,-431.849C1229.34,-394.44 1278.9,-305.322 1303.55,-260.98"/>
<polygon fill="black" stroke="black" points="1306.62,-262.673 1308.42,-252.232 1300.5,-259.271 1306.62,-262.673"/>
</g>
<!-- [root] aws_route_table_association.main&#45;public&#45;3&#45;a -->
<g id="node15" class="node"><title>[root] aws_route_table_association.main&#45;public&#45;3&#45;a</title>
<polygon fill="none" stroke="black" points="1610,-468 1348,-468 1348,-432 1610,-432 1610,-468"/>
<text text-anchor="middle" x="1479" y="-446.3" font-family="Times,serif" font-size="14.00">aws_route_table_association.main&#45;public&#45;3&#45;a</text>
</g>
<!-- [root] aws_route_table_association.main&#45;public&#45;3&#45;a&#45;&gt;[root] aws_route_table.main&#45;public -->
<g id="edge23" class="edge"><title>[root] aws_route_table_association.main&#45;public&#45;3&#45;a&#45;&gt;[root] aws_route_table.main&#45;public</title>
<path fill="none" stroke="black" d="M1456.75,-431.697C1445.42,-422.881 1431.47,-412.032 1419.18,-402.474"/>
<polygon fill="black" stroke="black" points="1421.03,-399.481 1410.99,-396.104 1416.74,-405.007 1421.03,-399.481"/>
</g>
<!-- [root] aws_subnet.main&#45;public&#45;3 -->
<g id="node23" class="node"><title>[root] aws_subnet.main&#45;public&#45;3</title>
<polygon fill="none" stroke="black" points="1662.25,-396 1503.75,-396 1503.75,-360 1662.25,-360 1662.25,-396"/>
<text text-anchor="middle" x="1583" y="-374.3" font-family="Times,serif" font-size="14.00">aws_subnet.main&#45;public&#45;3</text>
</g>
<!-- [root] aws_route_table_association.main&#45;public&#45;3&#45;a&#45;&gt;[root] aws_subnet.main&#45;public&#45;3 -->
<g id="edge24" class="edge"><title>[root] aws_route_table_association.main&#45;public&#45;3&#45;a&#45;&gt;[root] aws_subnet.main&#45;public&#45;3</title>
<path fill="none" stroke="black" d="M1504.44,-431.876C1517.79,-422.893 1534.32,-411.763 1548.78,-402.034"/>
<polygon fill="black" stroke="black" points="1551.12,-404.677 1557.46,-396.19 1547.21,-398.87 1551.12,-404.677"/>
</g>
<!-- [root] aws_security_group.myapp&#45;elb&#45;securitygroup -->
<g id="node17" class="node"><title>[root] aws_security_group.myapp&#45;elb&#45;securitygroup</title>
<polygon fill="none" stroke="black" points="1181.25,-252 918.75,-252 918.75,-216 1181.25,-216 1181.25,-252"/>
<text text-anchor="middle" x="1050" y="-230.3" font-family="Times,serif" font-size="14.00">aws_security_group.myapp&#45;elb&#45;securitygroup</text>
</g>
<!-- [root] aws_security_group.ecs&#45;securitygroup&#45;&gt;[root] aws_security_group.myapp&#45;elb&#45;securitygroup -->
<g id="edge25" class="edge"><title>[root] aws_security_group.ecs&#45;securitygroup&#45;&gt;[root] aws_security_group.myapp&#45;elb&#45;securitygroup</title>
<path fill="none" stroke="black" d="M974.463,-287.876C987.296,-278.893 1003.2,-267.763 1017.09,-258.034"/>
<polygon fill="black" stroke="black" points="1019.26,-260.792 1025.44,-252.19 1015.24,-255.057 1019.26,-260.792"/>
</g>
<!-- [root] aws_security_group.myapp&#45;elb&#45;securitygroup&#45;&gt;[root] aws_vpc.main -->
<g id="edge26" class="edge"><title>[root] aws_security_group.myapp&#45;elb&#45;securitygroup&#45;&gt;[root] aws_vpc.main</title>
<path fill="none" stroke="black" d="M1161.45,-215.966C1252.81,-202.002 1378.42,-182.805 1450.62,-171.77"/>
<polygon fill="black" stroke="black" points="1451.52,-175.173 1460.88,-170.202 1450.46,-168.253 1451.52,-175.173"/>
</g>
<!-- [root] aws_subnet.main&#45;private&#45;1 -->
<g id="node18" class="node"><title>[root] aws_subnet.main&#45;private&#45;1</title>
<polygon fill="none" stroke="black" points="1789.25,-468 1628.75,-468 1628.75,-432 1789.25,-432 1789.25,-468"/>
<text text-anchor="middle" x="1709" y="-446.3" font-family="Times,serif" font-size="14.00">aws_subnet.main&#45;private&#45;1</text>
</g>
<!-- [root] aws_subnet.main&#45;private&#45;1&#45;&gt;[root] aws_vpc.main -->
<g id="edge27" class="edge"><title>[root] aws_subnet.main&#45;private&#45;1&#45;&gt;[root] aws_vpc.main</title>
<path fill="none" stroke="black" d="M1707.73,-431.699C1703.74,-389.49 1687.97,-280.017 1629,-216 1611.94,-197.476 1587.25,-185.092 1564.62,-176.989"/>
<polygon fill="black" stroke="black" points="1565.66,-173.649 1555.07,-173.773 1563.43,-180.282 1565.66,-173.649"/>
</g>
<!-- [root] aws_subnet.main&#45;private&#45;2 -->
<g id="node19" class="node"><title>[root] aws_subnet.main&#45;private&#45;2</title>
<polygon fill="none" stroke="black" points="1968.25,-468 1807.75,-468 1807.75,-432 1968.25,-432 1968.25,-468"/>
<text text-anchor="middle" x="1888" y="-446.3" font-family="Times,serif" font-size="14.00">aws_subnet.main&#45;private&#45;2</text>
</g>
<!-- [root] aws_subnet.main&#45;private&#45;2&#45;&gt;[root] aws_vpc.main -->
<g id="edge28" class="edge"><title>[root] aws_subnet.main&#45;private&#45;2&#45;&gt;[root] aws_vpc.main</title>
<path fill="none" stroke="black" d="M1875.42,-431.775C1843.54,-389.262 1755.1,-278.288 1657,-216 1628.91,-198.161 1594.01,-185.334 1565.06,-176.771"/>
<polygon fill="black" stroke="black" points="1565.66,-173.303 1555.08,-173.919 1563.74,-180.033 1565.66,-173.303"/>
</g>
<!-- [root] aws_subnet.main&#45;private&#45;3 -->
<g id="node20" class="node"><title>[root] aws_subnet.main&#45;private&#45;3</title>
<polygon fill="none" stroke="black" points="2147.25,-468 1986.75,-468 1986.75,-432 2147.25,-432 2147.25,-468"/>
<text text-anchor="middle" x="2067" y="-446.3" font-family="Times,serif" font-size="14.00">aws_subnet.main&#45;private&#45;3</text>
</g>
<!-- [root] aws_subnet.main&#45;private&#45;3&#45;&gt;[root] aws_vpc.main -->
<g id="edge29" class="edge"><title>[root] aws_subnet.main&#45;private&#45;3&#45;&gt;[root] aws_vpc.main</title>
<path fill="none" stroke="black" d="M2044.85,-431.857C1989.2,-389.532 1837.81,-278.953 1696,-216 1653.75,-197.244 1603.19,-183.435 1565.15,-174.622"/>
<polygon fill="black" stroke="black" points="1565.79,-171.179 1555.26,-172.38 1564.24,-178.006 1565.79,-171.179"/>
</g>
<!-- [root] aws_subnet.main&#45;public&#45;1&#45;&gt;[root] aws_vpc.main -->
<g id="edge30" class="edge"><title>[root] aws_subnet.main&#45;public&#45;1&#45;&gt;[root] aws_vpc.main</title>
<path fill="none" stroke="black" d="M998.423,-370.25C1068.11,-362.8 1162.65,-348.491 1191,-324 1229.51,-290.737 1190.41,-249.172 1229,-216 1261.56,-188.007 1378.98,-173.571 1450.7,-167.203"/>
<polygon fill="black" stroke="black" points="1451.27,-170.666 1460.94,-166.321 1450.67,-163.692 1451.27,-170.666"/>
</g>
<!-- [root] aws_subnet.main&#45;public&#45;2&#45;&gt;[root] aws_vpc.main -->
<g id="edge31" class="edge"><title>[root] aws_subnet.main&#45;public&#45;2&#45;&gt;[root] aws_vpc.main</title>
<path fill="none" stroke="black" d="M1364.48,-215.876C1390.92,-206.137 1424.2,-193.872 1452.06,-183.608"/>
<polygon fill="black" stroke="black" points="1453.5,-186.81 1461.67,-180.068 1451.08,-180.241 1453.5,-186.81"/>
</g>
<!-- [root] aws_subnet.main&#45;public&#45;3&#45;&gt;[root] aws_vpc.main -->
<g id="edge32" class="edge"><title>[root] aws_subnet.main&#45;public&#45;3&#45;&gt;[root] aws_vpc.main</title>
<path fill="none" stroke="black" d="M1592.84,-359.594C1609.03,-328.423 1636.83,-262.036 1609,-216 1599.02,-199.485 1582,-187.864 1564.75,-179.803"/>
<polygon fill="black" stroke="black" points="1565.75,-176.425 1555.18,-175.683 1562.98,-182.854 1565.75,-176.425"/>
</g>
<!-- [root] aws_vpc.main&#45;&gt;[root] provider.aws -->
<g id="edge33" class="edge"><title>[root] aws_vpc.main&#45;&gt;[root] provider.aws</title>
<path fill="none" stroke="black" d="M1460.97,-152.97C1383.71,-139.78 1230.51,-113.624 1150.08,-99.8917"/>
<polygon fill="black" stroke="black" points="1150.62,-96.433 1140.17,-98.2 1149.44,-103.333 1150.62,-96.433"/>
</g>
<!-- [root] var.AWS_ACCESS_KEY -->
<g id="node26" class="node"><title>[root] var.AWS_ACCESS_KEY</title>
<polygon fill="none" stroke="black" points="1012.25,-36 861.75,-36 861.75,-0 1018.25,-0 1018.25,-30 1012.25,-36"/>
<polyline fill="none" stroke="black" points="1012.25,-36 1012.25,-30 "/>
<polyline fill="none" stroke="black" points="1018.25,-30 1012.25,-30 "/>
<text text-anchor="middle" x="940" y="-14.3" font-family="Times,serif" font-size="14.00">var.AWS_ACCESS_KEY</text>
</g>
<!-- [root] provider.aws&#45;&gt;[root] var.AWS_ACCESS_KEY -->
<g id="edge57" class="edge"><title>[root] provider.aws&#45;&gt;[root] var.AWS_ACCESS_KEY</title>
<path fill="none" stroke="black" d="M1072.61,-77.7533C1049.81,-67.6492 1015.71,-52.5442 987.807,-40.1803"/>
<polygon fill="black" stroke="black" points="989.166,-36.9543 978.605,-36.1036 986.33,-43.3543 989.166,-36.9543"/>
</g>
<!-- [root] var.AWS_REGION -->
<g id="node27" class="node"><title>[root] var.AWS_REGION</title>
<polygon fill="none" stroke="black" points="1153,-36 1037,-36 1037,-0 1159,-0 1159,-30 1153,-36"/>
<polyline fill="none" stroke="black" points="1153,-36 1153,-30 "/>
<polyline fill="none" stroke="black" points="1159,-30 1153,-30 "/>
<text text-anchor="middle" x="1098" y="-14.3" font-family="Times,serif" font-size="14.00">var.AWS_REGION</text>
</g>
<!-- [root] provider.aws&#45;&gt;[root] var.AWS_REGION -->
<g id="edge58" class="edge"><title>[root] provider.aws&#45;&gt;[root] var.AWS_REGION</title>
<path fill="none" stroke="black" d="M1098,-71.6966C1098,-63.9827 1098,-54.7125 1098,-46.1124"/>
<polygon fill="black" stroke="black" points="1101.5,-46.1043 1098,-36.1043 1094.5,-46.1044 1101.5,-46.1043"/>
</g>
<!-- [root] var.AWS_SECRET_KEY -->
<g id="node28" class="node"><title>[root] var.AWS_SECRET_KEY</title>
<polygon fill="none" stroke="black" points="1328.25,-36 1177.75,-36 1177.75,-0 1334.25,-0 1334.25,-30 1328.25,-36"/>
<polyline fill="none" stroke="black" points="1328.25,-36 1328.25,-30 "/>
<polyline fill="none" stroke="black" points="1334.25,-30 1328.25,-30 "/>
<text text-anchor="middle" x="1256" y="-14.3" font-family="Times,serif" font-size="14.00">var.AWS_SECRET_KEY</text>
</g>
<!-- [root] provider.aws&#45;&gt;[root] var.AWS_SECRET_KEY -->
<g id="edge59" class="edge"><title>[root] provider.aws&#45;&gt;[root] var.AWS_SECRET_KEY</title>
<path fill="none" stroke="black" d="M1123.39,-77.7533C1146.19,-67.6492 1180.29,-52.5442 1208.19,-40.1803"/>
<polygon fill="black" stroke="black" points="1209.67,-43.3543 1217.39,-36.1036 1206.83,-36.9543 1209.67,-43.3543"/>
</g>
<!-- [root] var.PATH_TO_PRIVATE_KEY -->
<g id="node31" class="node"><title>[root] var.PATH_TO_PRIVATE_KEY</title>
<polygon fill="none" stroke="black" points="2752.25,-468 2567.75,-468 2567.75,-432 2758.25,-432 2758.25,-462 2752.25,-468"/>
<polyline fill="none" stroke="black" points="2752.25,-468 2752.25,-462 "/>
<polyline fill="none" stroke="black" points="2758.25,-462 2752.25,-462 "/>
<text text-anchor="middle" x="2663" y="-446.3" font-family="Times,serif" font-size="14.00">var.PATH_TO_PRIVATE_KEY</text>
</g>
<!-- [root] meta.count&#45;boundary (EachMode fixup) -->
<g id="node33" class="node"><title>[root] meta.count&#45;boundary (EachMode fixup)</title>
<ellipse fill="none" stroke="black" cx="1709" cy="-522" rx="176.202" ry="18"/>
<text text-anchor="middle" x="1709" y="-518.3" font-family="Times,serif" font-size="14.00">[root] meta.count&#45;boundary (EachMode fixup)</text>
</g>
<!-- [root] meta.count&#45;boundary (EachMode fixup)&#45;&gt;[root] aws_autoscaling_group.ecs&#45;spin&#45;asg -->
<g id="edge34" class="edge"><title>[root] meta.count&#45;boundary (EachMode fixup)&#45;&gt;[root] aws_autoscaling_group.ecs&#45;spin&#45;asg</title>
<path fill="none" stroke="black" d="M1586.5,-509.053C1565.34,-507.204 1543.54,-505.435 1523,-504 1196.14,-481.165 1110.23,-499.853 780.487,-468.085"/>
<polygon fill="black" stroke="black" points="780.451,-464.565 770.159,-467.082 779.774,-471.533 780.451,-464.565"/>
</g>
<!-- [root] meta.count&#45;boundary (EachMode fixup)&#45;&gt;[root] aws_ecs_cluster.spin&#45;test -->
<g id="edge35" class="edge"><title>[root] meta.count&#45;boundary (EachMode fixup)&#45;&gt;[root] aws_ecs_cluster.spin&#45;test</title>
<path fill="none" stroke="black" d="M1832.21,-509.05C1919.64,-499.942 2039.95,-486.144 2155.43,-468.017"/>
<polygon fill="black" stroke="black" points="2156.18,-471.441 2165.51,-466.421 2155.09,-464.527 2156.18,-471.441"/>
</g>
<!-- [root] meta.count&#45;boundary (EachMode fixup)&#45;&gt;[root] aws_iam_policy_attachment.ecs&#45;service&#45;attach1 -->
<g id="edge36" class="edge"><title>[root] meta.count&#45;boundary (EachMode fixup)&#45;&gt;[root] aws_iam_policy_attachment.ecs&#45;service&#45;attach1</title>
<path fill="none" stroke="black" d="M1588.02,-508.847C1566.39,-506.986 1544.04,-505.267 1523,-504 977.775,-471.175 836.868,-506.951 288.168,-468.042"/>
<polygon fill="black" stroke="black" points="288.237,-464.538 278.013,-467.317 287.738,-471.52 288.237,-464.538"/>
</g>
<!-- [root] meta.count&#45;boundary (EachMode fixup)&#45;&gt;[root] aws_iam_role.ecs&#45;consul&#45;server&#45;role -->
<g id="edge37" class="edge"><title>[root] meta.count&#45;boundary (EachMode fixup)&#45;&gt;[root] aws_iam_role.ecs&#45;consul&#45;server&#45;role</title>
<path fill="none" stroke="black" d="M1850.22,-511.208C1972.78,-502.159 2155.23,-487.369 2324.8,-467.979"/>
<polygon fill="black" stroke="black" points="2325.38,-471.435 2334.92,-466.815 2324.58,-464.481 2325.38,-471.435"/>
</g>
<!-- [root] meta.count&#45;boundary (EachMode fixup)&#45;&gt;[root] aws_iam_role_policy.ecs&#45;spin&#45;role&#45;policy -->
<g id="edge38" class="edge"><title>[root] meta.count&#45;boundary (EachMode fixup)&#45;&gt;[root] aws_iam_role_policy.ecs&#45;spin&#45;role&#45;policy</title>
<path fill="none" stroke="black" d="M1587.51,-508.941C1566.03,-507.082 1543.87,-505.339 1523,-504 1094.08,-476.493 982.432,-503.483 549.575,-467.99"/>
<polygon fill="black" stroke="black" points="549.544,-464.475 539.29,-467.139 548.967,-471.451 549.544,-464.475"/>
</g>
<!-- [root] meta.count&#45;boundary (EachMode fixup)&#45;&gt;[root] aws_route_table_association.main&#45;public&#45;1&#45;a -->
<g id="edge39" class="edge"><title>[root] meta.count&#45;boundary (EachMode fixup)&#45;&gt;[root] aws_route_table_association.main&#45;public&#45;1&#45;a</title>
<path fill="none" stroke="black" d="M1583.71,-509.312C1563.42,-507.487 1542.63,-505.658 1523,-504 1320.21,-486.867 1266.54,-488.416 1060.39,-468.114"/>
<polygon fill="black" stroke="black" points="1060.43,-464.601 1050.14,-467.099 1059.74,-471.567 1060.43,-464.601"/>
</g>
<!-- [root] meta.count&#45;boundary (EachMode fixup)&#45;&gt;[root] aws_route_table_association.main&#45;public&#45;2&#45;a -->
<g id="edge40" class="edge"><title>[root] meta.count&#45;boundary (EachMode fixup)&#45;&gt;[root] aws_route_table_association.main&#45;public&#45;2&#45;a</title>
<path fill="none" stroke="black" d="M1608.54,-507.212C1529.83,-496.408 1419.56,-481.273 1333.28,-469.43"/>
<polygon fill="black" stroke="black" points="1333.53,-465.932 1323.14,-468.039 1332.57,-472.867 1333.53,-465.932"/>
</g>
<!-- [root] meta.count&#45;boundary (EachMode fixup)&#45;&gt;[root] aws_route_table_association.main&#45;public&#45;3&#45;a -->
<g id="edge41" class="edge"><title>[root] meta.count&#45;boundary (EachMode fixup)&#45;&gt;[root] aws_route_table_association.main&#45;public&#45;3&#45;a</title>
<path fill="none" stroke="black" d="M1655.66,-504.765C1622.54,-494.686 1579.74,-481.661 1544.57,-470.955"/>
<polygon fill="black" stroke="black" points="1545.45,-467.564 1534.86,-468.001 1543.41,-474.261 1545.45,-467.564"/>
</g>
<!-- [root] meta.count&#45;boundary (EachMode fixup)&#45;&gt;[root] aws_subnet.main&#45;private&#45;1 -->
<g id="edge42" class="edge"><title>[root] meta.count&#45;boundary (EachMode fixup)&#45;&gt;[root] aws_subnet.main&#45;private&#45;1</title>
<path fill="none" stroke="black" d="M1709,-503.697C1709,-495.983 1709,-486.712 1709,-478.112"/>
<polygon fill="black" stroke="black" points="1712.5,-478.104 1709,-468.104 1705.5,-478.104 1712.5,-478.104"/>
</g>
<!-- [root] meta.count&#45;boundary (EachMode fixup)&#45;&gt;[root] aws_subnet.main&#45;private&#45;2 -->
<g id="edge43" class="edge"><title>[root] meta.count&#45;boundary (EachMode fixup)&#45;&gt;[root] aws_subnet.main&#45;private&#45;2</title>
<path fill="none" stroke="black" d="M1751.42,-504.411C1776.37,-494.653 1808.15,-482.226 1834.77,-471.814"/>
<polygon fill="black" stroke="black" points="1836.29,-474.98 1844.33,-468.078 1833.74,-468.461 1836.29,-474.98"/>
</g>
<!-- [root] meta.count&#45;boundary (EachMode fixup)&#45;&gt;[root] aws_subnet.main&#45;private&#45;3 -->
<g id="edge44" class="edge"><title>[root] meta.count&#45;boundary (EachMode fixup)&#45;&gt;[root] aws_subnet.main&#45;private&#45;3</title>
<path fill="none" stroke="black" d="M1786.68,-505.811C1842.57,-494.883 1918.11,-480.113 1976.69,-468.658"/>
<polygon fill="black" stroke="black" points="1977.54,-472.059 1986.68,-466.705 1976.19,-465.189 1977.54,-472.059"/>
</g>
<!-- [root] meta.count&#45;boundary (EachMode fixup)&#45;&gt;[root] var.PATH_TO_PRIVATE_KEY -->
<g id="edge45" class="edge"><title>[root] meta.count&#45;boundary (EachMode fixup)&#45;&gt;[root] var.PATH_TO_PRIVATE_KEY</title>
<path fill="none" stroke="black" d="M1873.36,-515.524C2042.35,-508.789 2313.26,-494.928 2557.35,-468"/>
<polygon fill="black" stroke="black" points="2557.93,-471.456 2567.49,-466.872 2557.16,-464.499 2557.93,-471.456"/>
</g>
<!-- [root] provider.aws (close) -->
<g id="node34" class="node"><title>[root] provider.aws (close)</title>
<ellipse fill="none" stroke="black" cx="1412" cy="-522" rx="102.536" ry="18"/>
<text text-anchor="middle" x="1412" y="-518.3" font-family="Times,serif" font-size="14.00">[root] provider.aws (close)</text>
</g>
<!-- [root] provider.aws (close)&#45;&gt;[root] aws_autoscaling_group.ecs&#45;spin&#45;asg -->
<g id="edge46" class="edge"><title>[root] provider.aws (close)&#45;&gt;[root] aws_autoscaling_group.ecs&#45;spin&#45;asg</title>
<path fill="none" stroke="black" d="M1317.71,-514.974C1195.92,-506.771 977.168,-490.61 780.134,-468.091"/>
<polygon fill="black" stroke="black" points="780.508,-464.611 770.174,-466.945 779.708,-471.565 780.508,-464.611"/>
</g>
<!-- [root] provider.aws (close)&#45;&gt;[root] aws_ecs_cluster.spin&#45;test -->
<g id="edge47" class="edge"><title>[root] provider.aws (close)&#45;&gt;[root] aws_ecs_cluster.spin&#45;test</title>
<path fill="none" stroke="black" d="M1483.57,-509.116C1496.98,-507.18 1510.89,-505.365 1524,-504 1800.55,-475.199 1875.19,-503.009 2155.49,-467.937"/>
<polygon fill="black" stroke="black" points="2156.07,-471.392 2165.55,-466.662 2155.19,-464.447 2156.07,-471.392"/>
</g>
<!-- [root] provider.aws (close)&#45;&gt;[root] aws_iam_policy_attachment.ecs&#45;service&#45;attach1 -->
<g id="edge48" class="edge"><title>[root] provider.aws (close)&#45;&gt;[root] aws_iam_policy_attachment.ecs&#45;service&#45;attach1</title>
<path fill="none" stroke="black" d="M1311.39,-518.531C1116.19,-513.242 672.253,-498.784 288.219,-468.065"/>
<polygon fill="black" stroke="black" points="288.267,-464.557 278.018,-467.244 287.705,-471.535 288.267,-464.557"/>
</g>
<!-- [root] provider.aws (close)&#45;&gt;[root] aws_iam_role.ecs&#45;consul&#45;server&#45;role -->
<g id="edge49" class="edge"><title>[root] provider.aws (close)&#45;&gt;[root] aws_iam_role.ecs&#45;consul&#45;server&#45;role</title>
<path fill="none" stroke="black" d="M1483.26,-509.03C1496.76,-507.09 1510.79,-505.296 1524,-504 1875.37,-469.535 1968.51,-501.066 2324.85,-467.939"/>
<polygon fill="black" stroke="black" points="2325.31,-471.412 2334.93,-466.991 2324.65,-464.443 2325.31,-471.412"/>
</g>
<!-- [root] provider.aws (close)&#45;&gt;[root] aws_iam_role_policy.ecs&#45;spin&#45;role&#45;policy -->
<g id="edge50" class="edge"><title>[root] provider.aws (close)&#45;&gt;[root] aws_iam_role_policy.ecs&#45;spin&#45;role&#45;policy</title>
<path fill="none" stroke="black" d="M1313.47,-517.122C1154.91,-510.399 833.099,-494.767 549.376,-467.992"/>
<polygon fill="black" stroke="black" points="549.585,-464.496 539.299,-467.035 548.923,-471.465 549.585,-464.496"/>
</g>
<!-- [root] provider.aws (close)&#45;&gt;[root] aws_route_table_association.main&#45;public&#45;1&#45;a -->
<g id="edge51" class="edge"><title>[root] provider.aws (close)&#45;&gt;[root] aws_route_table_association.main&#45;public&#45;1&#45;a</title>
<path fill="none" stroke="black" d="M1334.97,-510.062C1258.62,-499.222 1140.23,-482.411 1049.24,-469.493"/>
<polygon fill="black" stroke="black" points="1049.52,-465.997 1039.13,-468.057 1048.54,-472.928 1049.52,-465.997"/>
</g>
<!-- [root] provider.aws (close)&#45;&gt;[root] aws_route_table_association.main&#45;public&#45;2&#45;a -->
<g id="edge52" class="edge"><title>[root] provider.aws (close)&#45;&gt;[root] aws_route_table_association.main&#45;public&#45;2&#45;a</title>
<path fill="none" stroke="black" d="M1366.04,-505.897C1335.21,-495.764 1294.24,-482.3 1260.59,-471.242"/>
<polygon fill="black" stroke="black" points="1261.45,-467.84 1250.86,-468.043 1259.27,-474.49 1261.45,-467.84"/>
</g>
<!-- [root] provider.aws (close)&#45;&gt;[root] aws_route_table_association.main&#45;public&#45;3&#45;a -->
<g id="edge53" class="edge"><title>[root] provider.aws (close)&#45;&gt;[root] aws_route_table_association.main&#45;public&#45;3&#45;a</title>
<path fill="none" stroke="black" d="M1428.22,-504.055C1436.41,-495.498 1446.5,-484.959 1455.52,-475.535"/>
<polygon fill="black" stroke="black" points="1458.08,-477.92 1462.47,-468.275 1453.02,-473.079 1458.08,-477.92"/>
</g>
<!-- [root] provider.aws (close)&#45;&gt;[root] aws_subnet.main&#45;private&#45;1 -->
<g id="edge54" class="edge"><title>[root] provider.aws (close)&#45;&gt;[root] aws_subnet.main&#45;private&#45;1</title>
<path fill="none" stroke="black" d="M1470.68,-507.17C1515.37,-496.636 1577.45,-482.005 1627.05,-470.316"/>
<polygon fill="black" stroke="black" points="1627.86,-473.72 1636.79,-468.019 1626.25,-466.907 1627.86,-473.72"/>
</g>
<!-- [root] provider.aws (close)&#45;&gt;[root] aws_subnet.main&#45;private&#45;2 -->
<g id="edge55" class="edge"><title>[root] provider.aws (close)&#45;&gt;[root] aws_subnet.main&#45;private&#45;2</title>
<path fill="none" stroke="black" d="M1486.07,-509.543C1498.72,-507.648 1511.73,-505.737 1524,-504 1642.41,-487.237 1675.02,-487.386 1797.42,-468.039"/>
<polygon fill="black" stroke="black" points="1798.24,-471.453 1807.57,-466.424 1797.14,-464.54 1798.24,-471.453"/>
</g>
<!-- [root] provider.aws (close)&#45;&gt;[root] aws_subnet.main&#45;private&#45;3 -->
<g id="edge56" class="edge"><title>[root] provider.aws (close)&#45;&gt;[root] aws_subnet.main&#45;private&#45;3</title>
<path fill="none" stroke="black" d="M1484.5,-509.224C1497.62,-507.312 1511.2,-505.478 1524,-504 1721.4,-481.204 1775.1,-494.342 1976.58,-467.958"/>
<polygon fill="black" stroke="black" points="1977.15,-471.414 1986.6,-466.63 1976.23,-464.475 1977.15,-471.414"/>
</g>
<!-- [root] root -->
<g id="node35" class="node"><title>[root] root</title>
<ellipse fill="none" stroke="black" cx="1560" cy="-594" rx="47.169" ry="18"/>
<text text-anchor="middle" x="1560" y="-590.3" font-family="Times,serif" font-size="14.00">[root] root</text>
</g>
<!-- [root] root&#45;&gt;[root] meta.count&#45;boundary (EachMode fixup) -->
<g id="edge60" class="edge"><title>[root] root&#45;&gt;[root] meta.count&#45;boundary (EachMode fixup)</title>
<path fill="none" stroke="black" d="M1588.73,-579.503C1610.17,-569.428 1639.88,-555.471 1664.41,-543.95"/>
<polygon fill="black" stroke="black" points="1665.96,-547.087 1673.52,-539.667 1662.98,-540.751 1665.96,-547.087"/>
</g>
<!-- [root] root&#45;&gt;[root] provider.aws (close) -->
<g id="edge61" class="edge"><title>[root] root&#45;&gt;[root] provider.aws (close)</title>
<path fill="none" stroke="black" d="M1531.46,-579.503C1509.79,-569.252 1479.62,-554.982 1455.02,-543.348"/>
<polygon fill="black" stroke="black" points="1456.43,-540.144 1445.9,-539.032 1453.44,-546.472 1456.43,-540.144"/>
</g>
</g>
</svg>
